<?xml version="1.0" standalone="no"?>
<!DOCTYPE svg PUBLIC "-//W3C//DTD SVG 20010904//EN"
 "http://www.w3.org/TR/2001/REC-SVG-20010904/DTD/svg10.dtd">
<svg version="1.0" xmlns="http://www.w3.org/2000/svg"
 width="864.000000pt" height="864.000000pt" viewBox="0 0 864.000000 864.000000"
 preserveAspectRatio="xMidYMid meet">
<metadata>
Created by potrace 1.14, written by Peter Selinger 2001-2017
</metadata>
<g transform="translate(0.000000,864.000000) scale(0.100000,-0.100000)"
fill="#000000" stroke="none">
<path d="M2497 8514 c-9 -12 -17 -25 -17 -27 0 -3 -53 -97 -166 -292 -13 -22
-30 -53 -39 -70 -8 -16 -26 -48 -40 -70 -13 -22 -29 -49 -34 -60 -6 -11 -24
-42 -41 -70 -16 -27 -33 -56 -37 -64 -3 -8 -44 -80 -91 -160 -46 -80 -95 -166
-108 -191 -14 -25 -33 -58 -43 -75 -10 -16 -145 -253 -301 -525 -156 -272
-294 -513 -307 -535 -12 -22 -26 -47 -30 -55 -29 -56 -88 -156 -95 -158 -4 -2
-8 -12 -8 -22 0 -10 -3 -20 -8 -22 -6 -3 -219 -368 -263 -453 -17 -33 -74
-131 -89 -155 -5 -8 -23 -40 -40 -70 -17 -30 -40 -71 -52 -90 -11 -19 -37 -66
-57 -105 l-36 -70 2 -180 c3 -179 3 -194 3 -217 0 -7 0 -35 0 -63 0 -27 0 -57
-1 -65 0 -8 2 -27 5 -42 2 -15 0 -30 -5 -34 -5 -3 -6 -10 -3 -16 4 -6 8 -180
10 -387 1 -207 5 -671 9 -1031 4 -360 7 -755 8 -877 1 -123 5 -223 8 -223 3 0
54 -29 114 -65 59 -36 109 -65 110 -65 2 0 72 -41 156 -91 85 -51 168 -99 184
-109 17 -9 55 -32 85 -50 57 -34 111 -65 145 -84 19 -11 29 -17 100 -62 17
-10 32 -19 35 -19 17 -4 60 -30 60 -37 0 -4 4 -8 9 -8 5 0 55 -27 111 -60 56
-33 104 -60 106 -60 3 0 10 -5 17 -10 7 -6 41 -28 77 -48 36 -21 106 -62 155
-92 50 -29 104 -61 120 -70 17 -10 82 -48 145 -85 174 -103 231 -135 240 -135
5 0 10 -3 12 -7 3 -8 106 -73 114 -73 3 0 25 -14 50 -30 24 -17 44 -28 44 -25
0 4 7 -1 16 -9 8 -9 21 -16 28 -16 7 0 21 -9 31 -20 10 -11 22 -17 26 -14 5 3
9 0 9 -5 0 -6 4 -11 9 -11 5 0 67 -34 137 -76 71 -42 143 -84 159 -94 17 -9
55 -32 85 -50 30 -18 71 -42 90 -53 19 -11 47 -27 62 -36 15 -9 64 -38 110
-65 206 -121 330 -194 421 -248 l98 -58 42 22 c23 13 44 26 45 31 2 4 10 7 17
7 7 0 15 3 17 8 2 4 18 15 36 25 17 9 47 25 65 35 17 9 34 20 35 25 2 4 10 7
17 7 8 0 20 6 27 13 7 7 22 18 33 24 20 12 20 22 21 1495 l0 1483 102 178 c56
98 102 182 102 188 0 5 5 9 10 9 6 0 10 6 10 14 0 8 6 21 13 28 7 7 22 32 32
55 10 24 22 43 27 43 4 0 8 5 8 11 0 5 44 87 98 182 97 170 134 233 177 312
12 22 57 101 100 175 43 74 88 154 100 177 12 23 28 49 35 58 7 8 9 15 5 15
-3 0 3 12 14 26 12 15 21 32 21 40 0 7 4 14 8 16 5 2 30 44 57 93 27 50 51 92
55 95 3 3 14 21 23 40 25 50 52 97 67 115 7 8 9 15 5 15 -5 0 -1 8 7 18 8 9
30 44 48 77 18 33 44 78 56 100 13 22 27 46 30 53 4 7 46 83 95 169 49 85 89
157 89 160 0 3 8 17 18 31 11 15 32 52 49 82 71 130 86 156 97 167 8 8 28 0
81 -33 39 -24 76 -43 83 -44 6 0 12 -4 12 -10 0 -5 5 -10 10 -10 6 0 39 -18
75 -39 36 -22 74 -42 85 -46 11 -3 20 -11 20 -16 0 -5 4 -9 9 -9 12 0 155 -82
163 -95 4 -5 8 -6 8 -1 0 5 8 3 18 -5 9 -8 28 -20 41 -27 13 -8 40 -23 60 -34
20 -11 73 -42 119 -69 45 -27 87 -49 92 -49 6 0 10 -4 10 -10 0 -5 4 -10 10
-10 5 0 33 -14 62 -31 29 -18 68 -40 86 -50 17 -11 47 -27 65 -38 108 -62 144
-82 157 -91 8 -6 26 -16 40 -23 14 -6 85 -47 158 -90 l132 -79 0 -1479 c0
-813 2 -1479 4 -1479 1 0 66 37 142 82 76 45 153 89 171 97 18 9 33 23 34 31
1 17 1 3066 0 3092 -1 9 -35 36 -83 64 -46 27 -92 54 -103 61 -11 7 -27 15
-35 20 -8 4 -37 20 -65 36 -27 17 -115 68 -195 115 -80 47 -163 96 -185 109
-22 13 -56 31 -75 41 -19 9 -37 20 -40 23 -3 3 -39 25 -80 49 -127 72 -137 78
-177 103 -21 13 -45 27 -53 30 -8 4 -28 16 -45 27 -16 11 -37 23 -45 27 -12 5
-84 47 -180 103 -8 5 -67 39 -130 76 -185 108 -232 136 -281 166 -25 15 -51
28 -57 28 -7 0 -12 4 -12 9 0 5 -10 13 -22 17 -13 4 -25 9 -28 13 -5 6 -35 23
-100 58 -19 10 -37 21 -40 24 -3 4 -23 17 -45 28 -22 12 -47 26 -55 31 -36 22
-168 99 -200 117 -19 11 -118 69 -220 128 -102 60 -212 124 -245 143 -33 19
-73 42 -90 52 -16 9 -53 31 -81 48 -28 18 -56 32 -63 32 -6 0 -11 5 -11 10 0
6 -7 10 -15 10 -8 0 -15 5 -15 12 0 6 -3 8 -7 5 -3 -4 -13 -1 -22 6 -9 7 -50
32 -91 56 -41 23 -82 46 -90 51 -39 24 -230 135 -270 158 -25 14 -77 45 -117
69 -39 23 -74 43 -78 43 -4 0 -26 14 -50 30 -24 17 -46 30 -49 30 -3 0 -34 17
-68 38 -35 21 -84 49 -110 62 -27 14 -48 28 -48 32 0 5 -4 8 -10 8 -5 0 -47
22 -92 49 -46 27 -100 58 -120 70 -21 11 -55 31 -75 42 -21 12 -49 29 -63 38
-14 9 -36 23 -50 29 -14 7 -34 18 -45 25 -11 7 -52 30 -90 51 -39 22 -71 43
-73 48 -2 4 -8 8 -13 8 -6 0 -48 23 -95 50 -47 28 -89 50 -94 50 -6 0 -10 5
-10 10 0 6 -6 10 -14 10 -7 0 -19 7 -26 15 -7 8 -16 12 -21 9 -5 -3 -9 0 -9 5
0 6 -4 11 -10 11 -5 0 -39 18 -75 40 -36 22 -70 40 -75 40 -6 0 -10 4 -10 8 0
4 -12 13 -27 19 -16 7 -35 17 -43 22 -42 29 -190 111 -199 111 -6 0 -11 4 -11
9 0 20 -26 17 -43 -5z"/>
<path d="M6447 3403 c-5 -4 -28 -19 -52 -33 -24 -14 -113 -65 -197 -115 -84
-49 -158 -91 -165 -93 -7 -2 -13 -8 -13 -13 0 -5 -5 -9 -11 -9 -6 0 -31 -13
-56 -30 -24 -16 -47 -30 -50 -30 -5 0 -79 -44 -148 -87 -11 -7 -40 -24 -65
-37 -25 -13 -54 -31 -65 -39 -19 -15 -20 -29 -20 -1020 0 -1097 -5 -1017 55
-976 22 15 152 92 237 140 17 10 49 29 70 42 21 13 45 27 53 30 8 4 29 16 45
26 17 10 107 64 200 120 94 55 176 105 183 109 10 6 12 216 10 1016 -2 554 -7
1004 -11 999z"/>
</g>
</svg>
